{"title":"Batman The Dark Knight Rises Full Hd Bluray Latino 1080p - pott1","uid":8283605,"size":4349862846,"categoryP":"video","categoryS":"hd___movies","magnet":"?xt=urn:btih:43e01fe3c9e511ec90eda4dcd14946df59c50dd9&amp;dn=Batman+The+Dark+Knight+Rises+Full+Hd+Bluray+Latino+1080p+-+pott1&amp;tr=udp%3A%2F%2Ftracker.openbittorrent.com%3A80&amp;tr=udp%3A%2F%2Fopen.demonii.com%3A1337&amp;tr=udp%3A%2F%2Ftracker.coppersurfer.tk%3A6969&amp;tr=udp%3A%2F%2Fexodus.desync.com%3A6969","seeders":0,"leechers":2,"uploader":"fanaruto123","files":1,"time":1363894233,"description":"\nGeneral:\n\nFormat                           : Matroska\nFile size                        : 4.05 GiB\nDuration                         : 2h 39mn\nOverall bit rate                 : 3 640 Kbps\nEncoded date                     : UTC 2013-02-23 00:34:45\nWriting application              : mkvmerge v5.3.0 ('I could have danced') built on Feb  9 2012 10:38:07\nWriting library                  : libebml v1.2.3 + libmatroska v1.3.0\n\nVideo\nID                               : 1\nFormat                           : AVC\nFormat/Info                      : Advanced Video Codec\nFormat profile                   : &lt;a class=&quot;__cf_email__&quot; href=&quot;/cdn-cgi/l/email-protection&quot; data-cfemail=&quot;94dcfdf3fcd4d8a0baa4&quot;&gt;[email&amp;#160;protected]&lt;/a&gt;&lt;script cf-hash='f9e31' type=&quot;text/javascript&quot;&gt;\n/* &lt;![CDATA[ */!function(){try{var t=&quot;currentScript&quot;in document?document.currentScript:function(){for(var t=document.getElementsByTagName(&quot;script&quot;),e=t.length;e--;)if(t[e].getAttribute(&quot;cf-hash&quot;))return t[e]}();if(t&amp;&amp;t.previousSibling){var e,r,n,i,c=t.previousSibling,a=c.getAttribute(&quot;data-cfemail&quot;);if(a){for(e=&quot;&quot;,r=parseInt(a.substr(0,2),16),n=2;a.length-n;n+=2)i=parseInt(a.substr(n,2),16)^r,e+=String.fromCharCode(i);e=document.createTextNode(e),c.parentNode.replaceChild(e,c)}}}catch(u){}}();/* ]]&gt; */&lt;/script&gt;\nFormat settings, CABAC           : Yes\nFormat settings, ReFrames        : 3 frames\nMuxing mode                      : Header stripping\nCodec ID                         : V_MPEG4/ISO/AVC\nDuration                         : 2h 39mn\nBit rate mode                    : Variable\nBit rate                         : 3 155 Kbps\nMaximum bit rate                 : 25.0 Mbps\nWidth                            : 1 920 pixels\nHeight                           : 1 080 pixels\nDisplay aspect ratio             : 16:9\nFrame rate                       : 23.976 fps\nColor space                      : YUV\nChroma subsampling               : 4:2:0\nBit depth                        : 8 bits\nScan type                        : Progressive\nBits/(Pixel*Frame)               : 0.063\nStream size                      : 3.47 GiB (86%)\nWriting library                  : x264 core 105 r1732 2b04482\n\n\nAudio\nID                               : 2\nFormat                           : AC-3\nFormat/Info                      : Audio Coding 3\nMode extension                   : CM (complete main)\nMuxing mode                      : Header stripping\nCodec ID                         : A_AC3\nDuration                         : 2h 39mn\nBit rate mode                    : Constant\nBit rate                         : 448 Kbps\nChannel(s)                       : 6 channels\nChannel positions                : Front: L C R, Side: L R, LFE\nSampling rate                    : 48.0 KHz\nBit depth                        : 16 bits\nCompression mode                 : Lossy\nStream size                      : 511 MiB (12%)\n\n\naudio: latino\nvideo: bluray 1080p y 800p\nimdb: http://www.imdb.com/title/tt1345836/?ref_=sr_1","torrent":{"xt":"urn:btih:43e01fe3c9e511ec90eda4dcd14946df59c50dd9","amp;dn":"Batman+The+Dark+Knight+Rises+Full+Hd+Bluray+Latino+1080p+-+pott1","amp;tr":["udp%3A%2F%2Ftracker.openbittorrent.com%3A80","udp%3A%2F%2Fopen.demonii.com%3A1337","udp%3A%2F%2Ftracker.coppersurfer.tk%3A6969","udp%3A%2F%2Fexodus.desync.com%3A6969"],"infoHash":"43e01fe3c9e511ec90eda4dcd14946df59c50dd9","infoHashBuffer":{"type":"Buffer","data":[67,224,31,227,201,229,17,236,144,237,164,220,209,73,70,223,89,197,13,217]},"announce":[],"urlList":[]}}